<svg aria-hidden="true" style="position: absolute; width: 0; height: 0; overflow: hidden;" version="1.1" xmlns="http://www.w3.org/2000/svg" xmlns:xlink="http://www.w3.org/1999/xlink">
<defs>
<symbol id="icon-bi_grid-1x2" viewBox="0 0 32 32">
<path d="M1.533 0.058c-0.56 0.132-1.075 0.561-1.341 1.115l-0.165 0.347v28.96l0.166 0.347c0.213 0.442 0.541 0.771 0.98 0.981l0.347 0.165h10.987l0.293-0.139c0.611-0.294 1.052-0.856 1.172-1.53l0.002-0.013c0.036-0.195 0.049-5.088 0.040-14.48l-0.014-14.184-0.124-0.309c-0.154-0.397-0.416-0.724-0.751-0.953l-0.007-0.005c-0.549-0.374-0.332-0.362-6.156-0.356-2.876 0.003-5.319 0.027-5.429 0.053zM19.468 0.085c-0.756 0.205-1.302 0.821-1.441 1.628-0.041 0.236-0.054 1.927-0.043 5.514 0.016 5.171 0.016 5.173 0.132 5.456 0.224 0.546 0.655 0.977 1.201 1.201 0.283 0.116 0.284 0.116 5.475 0.131 3.408 0.010 5.295-0.004 5.493-0.040 0.689-0.121 1.254-0.562 1.544-1.162l0.005-0.013 0.139-0.293v-10.987l-0.15-0.326c-0.225-0.444-0.578-0.795-1.010-1.012l-0.013-0.006-0.32-0.149-5.36-0.011c-4.59-0.009-5.402 0.001-5.652 0.069zM12 16.027v14h-9.973v-28h9.973v14zM29.973 7.013v4.987h-9.973v-9.973h9.973v4.986zM19.325 18.125c-0.518 0.18-0.981 0.636-1.209 1.192-0.116 0.283-0.116 0.285-0.132 5.456-0.011 3.638 0.002 5.276 0.044 5.52 0.118 0.687 0.56 1.251 1.159 1.536l0.013 0.005 0.293 0.139h10.987l0.326-0.15c0.411-0.19 0.822-0.603 1.018-1.023l0.149-0.32v-10.987l-0.139-0.293c-0.198-0.424-0.525-0.761-0.93-0.966l-0.012-0.005-0.356-0.176-5.468-0.012c-5.136-0.011-5.485-0.006-5.743 0.084zM29.973 25.013v5.014h-9.973v-10.027h9.973v5.013z"></path>
</symbol>
<symbol id="icon-bi_grid-3x3-gap" viewBox="0 0 32 32">
<path d="M3.325 2.125c-0.518 0.179-0.981 0.636-1.209 1.192-0.113 0.276-0.116 0.341-0.116 2.683s0.003 2.407 0.116 2.683c0.224 0.546 0.655 0.977 1.201 1.201 0.276 0.113 0.341 0.116 2.683 0.116s2.407-0.003 2.683-0.116c0.547-0.228 0.973-0.654 1.196-1.187l0.005-0.014c0.113-0.276 0.116-0.341 0.116-2.683s-0.003-2.407-0.116-2.683c-0.228-0.556-0.691-1.013-1.209-1.192-0.248-0.086-0.51-0.095-2.675-0.095s-2.427 0.009-2.675 0.095zM13.274 2.151c-0.507 0.198-0.906 0.581-1.119 1.064l-0.005 0.013c-0.123 0.265-0.123 0.266-0.123 2.772v2.507l0.139 0.293c0.293 0.608 0.852 1.048 1.522 1.171l0.013 0.002c0.375 0.070 4.223 0.070 4.598 0 0.683-0.125 1.242-0.565 1.529-1.16l0.006-0.013 0.139-0.293v-5.014l-0.139-0.293c-0.198-0.424-0.525-0.761-0.93-0.966l-0.012-0.005-0.356-0.176-4.963-0.025-0.299 0.123zM23.325 2.125c-0.518 0.179-0.981 0.636-1.209 1.192-0.113 0.276-0.116 0.341-0.116 2.683s0.003 2.407 0.116 2.683c0.224 0.546 0.655 0.977 1.201 1.201 0.276 0.113 0.341 0.116 2.683 0.116s2.407-0.003 2.683-0.116c0.547-0.228 0.973-0.654 1.196-1.187l0.005-0.014c0.113-0.276 0.116-0.341 0.116-2.683s-0.003-2.407-0.116-2.683c-0.228-0.556-0.691-1.013-1.209-1.192-0.248-0.086-0.51-0.095-2.675-0.095s-2.427 0.009-2.675 0.095zM8 6v2h-4v-4h4v2zM17.973 6v2h-3.946v-4h3.946v2zM28 6v2h-4v-4h4v2zM3.468 12.085c-0.742 0.2-1.292 0.809-1.437 1.594-0.077 0.42-0.077 4.22 0 4.645 0.13 0.673 0.567 1.223 1.156 1.505l0.013 0.005 0.293 0.139h5.014l0.293-0.139c0.615-0.296 1.058-0.864 1.175-1.544l0.002-0.013c0.035-0.196 0.050-1.102 0.039-2.48-0.017-2.125-0.020-2.177-0.141-2.479-0.25-0.621-0.757-1.081-1.366-1.237-0.457-0.116-4.603-0.113-5.041 0.004zM13.533 12.057c-0.564 0.136-1.076 0.562-1.341 1.116l-0.165 0.347v4.96l0.166 0.347c0.213 0.442 0.541 0.771 0.98 0.981l0.347 0.165h4.96l0.326-0.15c0.411-0.19 0.822-0.603 1.018-1.023l0.149-0.32v-4.96l-0.149-0.32c-0.223-0.445-0.574-0.798-1.005-1.017l-0.013-0.006-0.326-0.15-2.373-0.010c-1.306-0.005-2.464 0.013-2.574 0.040zM23.468 12.085c-0.742 0.2-1.292 0.809-1.437 1.594-0.077 0.42-0.077 4.22 0 4.645 0.13 0.673 0.567 1.223 1.156 1.505l0.013 0.005 0.293 0.139h5.014l0.293-0.139c0.615-0.296 1.058-0.864 1.175-1.544l0.002-0.013c0.035-0.196 0.050-1.102 0.039-2.48-0.017-2.125-0.020-2.177-0.141-2.479-0.25-0.621-0.757-1.081-1.366-1.237-0.457-0.116-4.603-0.113-5.041 0.004zM8 16.027v2h-4v-4h4v2zM17.973 16.027v2h-3.946v-4h3.946v2zM28 16.027v2h-4v-4h4v2zM3.325 22.125c-0.518 0.179-0.981 0.636-1.209 1.192-0.113 0.276-0.116 0.341-0.116 2.683s0.003 2.407 0.116 2.683c0.224 0.546 0.655 0.977 1.201 1.201 0.276 0.113 0.341 0.116 2.683 0.116s2.407-0.003 2.683-0.116c0.547-0.228 0.973-0.654 1.196-1.186l0.005-0.015c0.113-0.276 0.116-0.341 0.116-2.683s-0.003-2.407-0.116-2.683c-0.228-0.556-0.691-1.013-1.209-1.192-0.248-0.086-0.51-0.095-2.675-0.095s-2.427 0.009-2.675 0.095zM13.274 22.151c-0.507 0.198-0.906 0.581-1.119 1.064l-0.005 0.013c-0.123 0.265-0.123 0.266-0.123 2.772v2.507l0.139 0.293c0.293 0.608 0.852 1.048 1.522 1.171l0.013 0.002c0.375 0.070 4.223 0.070 4.598 0 0.683-0.125 1.242-0.565 1.529-1.16l0.006-0.013 0.139-0.293v-5.014l-0.139-0.293c-0.198-0.424-0.525-0.761-0.93-0.966l-0.012-0.005-0.356-0.176-4.963-0.025-0.299 0.123zM23.325 22.125c-0.518 0.179-0.981 0.636-1.209 1.192-0.113 0.276-0.116 0.341-0.116 2.683s0.003 2.407 0.116 2.683c0.224 0.546 0.655 0.977 1.201 1.201 0.276 0.113 0.341 0.116 2.683 0.116s2.407-0.003 2.683-0.116c0.155-0.064 0.385-0.194 0.51-0.29 0.295-0.227 0.546-0.558 0.691-0.911 0.113-0.276 0.116-0.341 0.116-2.683s-0.003-2.407-0.116-2.683c-0.228-0.556-0.691-1.013-1.209-1.192-0.248-0.086-0.51-0.095-2.675-0.095s-2.427 0.009-2.675 0.095zM8 26v2h-4v-4h4v2zM17.973 26v2h-3.946v-4h3.946v2zM28 26v2h-4v-4h4v2z"></path>
</symbol>
<symbol id="icon-bi_grid" viewBox="0 0 32 32">
<path d="M4.22 2.111c-0.677 0.182-1.359 0.683-1.747 1.285-0.119 0.197-0.228 0.426-0.316 0.665l-0.009 0.028-0.148 0.418v6.986l0.148 0.418c0.342 0.967 0.974 1.599 1.941 1.941l0.418 0.148h6.986l0.418-0.148c0.967-0.342 1.599-0.974 1.941-1.941l0.148-0.418v-6.986l-0.148-0.418c-0.354-1.001-1.122-1.727-2.095-1.981-0.452-0.118-7.098-0.115-7.537 0.003zM20.22 2.111c-0.677 0.182-1.359 0.683-1.747 1.285-0.119 0.197-0.228 0.426-0.316 0.665l-0.009 0.028-0.148 0.418v6.986l0.148 0.418c0.342 0.967 0.974 1.599 1.941 1.941l0.418 0.148h6.986l0.418-0.148c0.967-0.342 1.599-0.974 1.941-1.941l0.148-0.418v-6.986l-0.148-0.418c-0.354-1.001-1.122-1.727-2.095-1.981-0.452-0.118-7.098-0.115-7.537 0.003zM11.387 4.101c0.258 0.119 0.42 0.288 0.53 0.551 0.125 0.298 0.125 6.398 0 6.696-0.113 0.272-0.381 0.536-0.608 0.599-0.254 0.070-6.364 0.070-6.618 0-0.227-0.063-0.495-0.327-0.608-0.599-0.125-0.298-0.125-6.398 0-6.696 0.097-0.249 0.286-0.445 0.524-0.549l0.006-0.002c0.2-0.092 0.414-0.099 3.387-0.099s3.187 0.007 3.387 0.099zM27.387 4.101c0.258 0.119 0.42 0.288 0.53 0.551 0.125 0.298 0.125 6.398 0 6.696-0.113 0.272-0.381 0.536-0.608 0.599-0.254 0.070-6.364 0.070-6.618 0-0.227-0.063-0.495-0.327-0.608-0.599-0.125-0.298-0.125-6.398 0-6.696 0.097-0.249 0.286-0.445 0.524-0.549l0.006-0.002c0.2-0.092 0.414-0.099 3.387-0.099s3.187 0.007 3.387 0.099zM4.22 18.111c-0.677 0.182-1.359 0.683-1.747 1.285-0.119 0.197-0.228 0.426-0.316 0.665l-0.009 0.028-0.148 0.418v6.986l0.148 0.418c0.342 0.967 0.974 1.599 1.941 1.941l0.418 0.148h6.986l0.418-0.148c0.967-0.342 1.599-0.974 1.941-1.941l0.148-0.418v-6.986l-0.148-0.418c-0.354-1.001-1.122-1.727-2.095-1.981-0.452-0.118-7.098-0.115-7.537 0.003zM20.22 18.111c-0.677 0.182-1.359 0.683-1.747 1.285-0.119 0.197-0.228 0.426-0.316 0.665l-0.009 0.028-0.148 0.418v6.986l0.148 0.418c0.342 0.967 0.974 1.599 1.941 1.941l0.418 0.148h6.986l0.418-0.148c0.967-0.342 1.599-0.974 1.941-1.941l0.148-0.418v-6.986l-0.148-0.418c-0.354-1.001-1.122-1.727-2.095-1.981-0.452-0.118-7.098-0.115-7.537 0.003zM11.387 20.101c0.258 0.119 0.42 0.288 0.53 0.551 0.125 0.298 0.125 6.398 0 6.696-0.113 0.272-0.381 0.536-0.608 0.599-0.254 0.070-6.364 0.070-6.618 0-0.227-0.063-0.495-0.327-0.608-0.599-0.125-0.298-0.125-6.398 0-6.696 0.097-0.249 0.286-0.445 0.524-0.549l0.006-0.002c0.2-0.092 0.414-0.099 3.387-0.099s3.187 0.007 3.387 0.099zM27.387 20.101c0.258 0.119 0.42 0.288 0.53 0.551 0.125 0.298 0.125 6.398 0 6.696-0.113 0.272-0.381 0.536-0.608 0.599-0.254 0.070-6.364 0.070-6.618 0-0.227-0.063-0.495-0.327-0.608-0.599-0.125-0.298-0.125-6.398 0-6.696 0.097-0.249 0.286-0.445 0.524-0.549l0.006-0.002c0.2-0.092 0.414-0.099 3.387-0.099s3.187 0.007 3.387 0.099z"></path>
</symbol>
<symbol id="icon-cup-hot" viewBox="0 0 32 32">
<path d="M7.572 0.12c-0.269 0.136-0.502 0.421-0.928 1.133-0.568 0.951-0.723 1.585-0.567 2.313 0.092 0.428 0.424 1.073 0.856 1.661 0.683 0.931 0.999 1.423 1.035 1.616 0.043 0.229-0.131 0.611-0.592 1.302-0.419 0.627-0.462 0.918-0.201 1.376 0.251 0.442 0.871 0.592 1.332 0.322 0.25-0.147 0.661-0.717 1.058-1.471 0.305-0.576 0.408-0.935 0.408-1.412 0-0.729-0.273-1.329-1.155-2.533-0.537-0.734-0.817-1.209-0.817-1.387 0-0.137 0.245-0.614 0.565-1.099 0.367-0.558 0.451-0.777 0.41-1.061-0.057-0.393-0.252-0.646-0.615-0.797-0.274-0.115-0.511-0.104-0.789 0.037zM13.702 0.048c-0.274 0.089-0.432 0.243-0.767 0.746-0.442 0.663-0.755 1.293-0.865 1.739-0.072 0.294-0.078 0.428-0.032 0.765 0.102 0.749 0.16 0.856 1.526 2.826 0.459 0.664 0.489 0.815 0.251 1.286-0.168 0.314-0.322 0.57-0.489 0.817l0.022-0.034c-0.231 0.348-0.302 0.504-0.322 0.705-0.050 0.521 0.321 1.007 0.811 1.062 0.569 0.064 0.806-0.094 1.311-0.872 1.178-1.82 1.127-2.676-0.273-4.581-0.559-0.761-0.776-1.107-0.846-1.352-0.058-0.203 0.107-0.565 0.587-1.288 0.279-0.421 0.34-0.554 0.359-0.784 0.031-0.358-0.133-0.716-0.413-0.901-0.216-0.143-0.632-0.208-0.86-0.134zM19.572 0.12c-0.269 0.136-0.502 0.421-0.928 1.133-0.568 0.951-0.723 1.585-0.567 2.313 0.092 0.428 0.424 1.073 0.856 1.661 0.683 0.931 0.999 1.423 1.035 1.616 0.043 0.229-0.131 0.611-0.592 1.302-0.419 0.627-0.462 0.918-0.201 1.376 0.251 0.442 0.871 0.592 1.332 0.322 0.25-0.147 0.661-0.717 1.058-1.471 0.305-0.576 0.408-0.935 0.408-1.412 0-0.729-0.273-1.329-1.155-2.533-0.537-0.734-0.817-1.209-0.817-1.387 0-0.137 0.245-0.614 0.565-1.099 0.367-0.558 0.451-0.777 0.41-1.061-0.057-0.393-0.252-0.646-0.615-0.797-0.274-0.115-0.511-0.104-0.789 0.037zM0.613 12.101c-0.373 0.173-0.613 0.51-0.613 0.863 0 0.236 3.283 14.987 3.466 15.569 0.22 0.705 0.575 1.304 1.109 1.87 0.634 0.686 1.453 1.191 2.377 1.438l0.035 0.008 0.453 0.124h13.12l0.453-0.124c0.853-0.234 1.595-0.644 2.178-1.203 0.885-0.846 1.295-1.643 1.609-3.126l0.119-0.56 1.047-0.002c0.969-0.002 1.087-0.013 1.581-0.147 2.096-0.577 3.714-2.192 4.286-4.243l0.010-0.043c0.165-0.602 0.207-2.050 0.077-2.687-0.247-1.21-0.831-2.256-1.649-3.067l-0-0c-0.667-0.665-1.633-1.254-2.447-1.491l-0.286-0.083 0.23-1.025c0.127-0.564 0.231-1.102 0.232-1.195 0.002-0.364-0.232-0.7-0.612-0.876-0.206-0.095-0.677-0.099-13.387-0.099s-13.181 0.004-13.387 0.099zM25.704 14.227c-3.105 13.981-3.036 13.683-3.235 14.093-0.356 0.737-1.060 1.319-1.912 1.582-0.3 0.093-0.654 0.098-6.557 0.098s-6.257-0.005-6.557-0.098c-0.53-0.153-0.982-0.431-1.34-0.802l-0.001-0.001c-0.683-0.685-0.564-0.268-2.264-7.926l-1.542-6.946-0.045-0.2h23.498l-0.045 0.2zM27.759 17.422c1.053 0.534 1.828 1.49 2.107 2.639l0.006 0.027c0.146 0.608 0.121 1.5-0.058 2.072-0.517 1.64-2.018 2.811-3.794 2.824h-0.002c-0.313 0.001-0.585-0.013-0.604-0.033-0.028-0.027 0.85-4.080 1.607-7.422 0.081-0.354 0.087-0.364 0.224-0.329 0.077 0.019 0.309 0.119 0.514 0.222z"></path>
</symbol>
<symbol id="icon-diagram" viewBox="0 0 32 32">
<path d="M14.364 4.078c-1.043 0.24-1.868 0.992-2.208 1.971l-0.006 0.021c-0.118 0.341-0.123 0.424-0.123 1.93s0.005 1.589 0.123 1.93c0.386 1.098 1.348 1.901 2.515 2.048l0.015 0.002 0.307 0.035v2.012h-11.286l-0.241 0.152c-0.422 0.268-0.447 0.37-0.447 1.821 0 1.454 0.027 1.558 0.469 1.833 0.485 0.301 1.134 0.13 1.393-0.366 0.091-0.174 0.115-0.332 0.129-0.84l0.018-0.627h9.956l0.018 0.627c0.021 0.756 0.108 0.971 0.486 1.206 0.145 0.099 0.325 0.158 0.518 0.158s0.373-0.059 0.521-0.16l-0.003 0.002c0.378-0.235 0.465-0.45 0.486-1.206l0.018-0.627h9.956l0.018 0.627c0.021 0.756 0.108 0.971 0.486 1.206 0.485 0.301 1.134 0.13 1.393-0.366 0.104-0.199 0.112-0.299 0.112-1.467 0-1.451-0.025-1.553-0.447-1.821l-0.241-0.152h-11.286v-2.012l0.307-0.035c1.182-0.149 2.144-0.951 2.523-2.028l0.007-0.021c0.118-0.341 0.123-0.424 0.123-1.93s-0.005-1.589-0.123-1.93c-0.309-0.894-1.048-1.63-1.926-1.921-0.319-0.105-0.479-0.117-1.791-0.13-1.078-0.011-1.523 0.004-1.769 0.059zM17.37 6.083c0.204 0.078 0.441 0.308 0.53 0.515 0.104 0.244 0.105 2.556 0.001 2.805-0.086 0.207-0.407 0.5-0.609 0.556-0.189 0.053-2.395 0.053-2.584 0-0.202-0.056-0.523-0.349-0.609-0.556-0.106-0.253-0.103-2.629 0.003-2.832 0.097-0.185 0.341-0.417 0.511-0.485 0.184-0.072 2.565-0.075 2.757-0.003zM2.364 20.078c-1.043 0.24-1.868 0.992-2.208 1.971l-0.006 0.021c-0.118 0.341-0.123 0.424-0.123 1.93s0.005 1.589 0.123 1.93c0.142 0.411 0.436 0.885 0.736 1.184 0.299 0.3 0.773 0.594 1.184 0.736 0.341 0.118 0.424 0.123 1.93 0.123s1.589-0.005 1.93-0.123c0.901-0.322 1.598-1.019 1.913-1.898l0.007-0.022c0.118-0.341 0.123-0.424 0.123-1.93s-0.005-1.589-0.123-1.93c-0.309-0.894-1.048-1.63-1.926-1.921-0.319-0.105-0.479-0.117-1.791-0.13-1.078-0.011-1.523 0.004-1.769 0.059zM14.364 20.078c-1.043 0.24-1.868 0.992-2.208 1.971l-0.006 0.021c-0.118 0.341-0.123 0.424-0.123 1.93s0.005 1.589 0.123 1.93c0.322 0.901 1.019 1.598 1.898 1.913l0.022 0.007c0.341 0.118 0.424 0.123 1.93 0.123s1.589-0.005 1.93-0.123c0.901-0.322 1.598-1.019 1.913-1.898l0.007-0.022c0.118-0.341 0.123-0.424 0.123-1.93s-0.005-1.589-0.123-1.93c-0.309-0.894-1.048-1.63-1.926-1.921-0.319-0.105-0.479-0.117-1.791-0.13-1.078-0.011-1.523 0.004-1.769 0.059zM26.364 20.078c-1.043 0.24-1.868 0.992-2.208 1.971l-0.006 0.021c-0.118 0.341-0.123 0.424-0.123 1.93s0.005 1.589 0.123 1.93c0.322 0.901 1.019 1.598 1.898 1.913l0.022 0.007c0.341 0.118 0.424 0.123 1.93 0.123s1.589-0.005 1.93-0.123c0.901-0.322 1.598-1.019 1.913-1.898l0.007-0.022c0.118-0.341 0.123-0.424 0.123-1.93s-0.005-1.589-0.123-1.93c-0.309-0.894-1.048-1.63-1.926-1.921-0.319-0.105-0.479-0.117-1.791-0.13-1.078-0.011-1.523 0.004-1.769 0.059zM5.37 22.083c0.204 0.078 0.441 0.308 0.53 0.515 0.104 0.244 0.105 2.556 0.001 2.805-0.086 0.207-0.407 0.5-0.609 0.556-0.189 0.053-2.395 0.053-2.584 0-0.202-0.056-0.523-0.349-0.609-0.556-0.106-0.253-0.103-2.629 0.003-2.832 0.124-0.197 0.287-0.359 0.479-0.478l0.006-0.004c0.142-0.079 2.576-0.084 2.783-0.006zM17.37 22.083c0.204 0.078 0.441 0.308 0.53 0.515 0.104 0.244 0.105 2.556 0.001 2.805-0.086 0.207-0.407 0.5-0.609 0.556-0.189 0.053-2.395 0.053-2.584 0-0.202-0.056-0.523-0.349-0.609-0.556-0.106-0.253-0.103-2.629 0.003-2.832 0.097-0.185 0.341-0.417 0.511-0.485 0.184-0.072 2.565-0.075 2.757-0.003zM29.37 22.083c0.204 0.078 0.441 0.308 0.53 0.515 0.104 0.244 0.105 2.556 0.001 2.805-0.086 0.207-0.407 0.5-0.609 0.556-0.189 0.053-2.395 0.053-2.584 0-0.202-0.056-0.523-0.349-0.609-0.556-0.106-0.253-0.103-2.629 0.003-2.832 0.097-0.185 0.341-0.417 0.511-0.485 0.184-0.072 2.565-0.075 2.757-0.003z"></path>
</symbol>
<symbol id="icon-fuel-pump" viewBox="0 0 32 32">
<path d="M5.378 0.054c-1.549 0.266-2.699 1.275-3.226 2.826-0.094 0.282-0.099 0.805-0.125 13.707l-0.027 13.413-0.667 0.027c-0.848 0.034-1.056 0.133-1.251 0.6-0.21 0.501 0.042 1.069 0.571 1.29 0.176 0.074 1.403 0.083 11.347 0.083 12.13 0 11.346 0.019 11.674-0.283 0.18-0.189 0.299-0.438 0.324-0.714l0-0.005c-0.016-0.255-0.109-0.485-0.256-0.671l0.002 0.002c-0.2-0.222-0.39-0.275-1.077-0.302l-0.667-0.027-0.014-3.97c-0.006-2.184 0.005-3.989 0.027-4.010 0.069-0.067 0.558 0.053 0.904 0.221 0.389 0.19 0.72 0.538 0.912 0.958 0.123 0.269 0.138 0.381 0.173 1.333 0.045 1.189 0.122 1.525 0.47 2.058 0.536 0.819 1.328 1.299 2.296 1.39 1.395 0.13 2.758-0.84 3.126-2.221 0.066-0.246 0.078-1.045 0.078-5.027v-4.733l0.6-0.002c0.467 0 0.648-0.022 0.816-0.099 0.266-0.126 0.467-0.352 0.558-0.628l0.002-0.008c0.043-0.139 0.053-1.421 0.037-4.384-0.018-3.595-0.034-4.262-0.11-4.718-0.318-1.898-1.050-3.008-2.408-3.662-0.611-0.293-1.16-0.422-1.954-0.458-0.787-0.035-0.888-0.016-1.142 0.206-0.256 0.226-0.344 0.414-0.344 0.738 0 0.642 0.421 1.014 1.147 1.014 0.451 0 1.098 0.134 1.451 0.301 0.725 0.344 1.138 1.088 1.294 2.334 0.029 0.235 0.053 0.578 0.053 0.76v0.331l-1.613 0.016c-1.606 0.018-1.614 0.018-1.845 0.15-0.147 0.089-0.268 0.207-0.357 0.348l-0.003 0.004-0.128 0.218v3.398c0 3.227 0.005 3.406 0.101 3.595 0.219 0.43 0.486 0.544 1.283 0.544h0.589l-0.002 4.6c0 4.378-0.005 4.611-0.101 4.819-0.070 0.141-0.164 0.26-0.278 0.355l-0.002 0.001c-0.173 0.133-0.579 0.262-0.704 0.224-0.035-0.011-0.105-0.028-0.175-0.044l-0.032-0.006c-0.13-0.046-0.242-0.114-0.337-0.199l0.001 0.001c-0.336-0.296-0.36-0.389-0.402-1.539-0.042-1.13-0.086-1.352-0.397-1.981-0.624-1.264-1.8-2.069-3.227-2.21l-0.373-0.037v-8.246c-0.002-8.968 0.011-8.59-0.299-9.301-0.484-1.107-1.416-1.941-2.56-2.282l-0.029-0.007-0.392-0.12-6.533-0.010c-3.594-0.005-6.645 0.011-6.782 0.035zM18.299 2.027c0.68 0.126 1.242 0.557 1.534 1.173l0.139 0.293 0.029 26.534h-16.003l0.029-26.534 0.139-0.293c0.274-0.581 0.793-1.007 1.42-1.151l0.014-0.003c0.381-0.083 12.261-0.101 12.699-0.019zM6.581 4.102c-0.278 0.136-0.482 0.389-0.549 0.692l-0.001 0.007c-0.075 0.328-0.075 10.069 0 10.397 0.074 0.315 0.278 0.576 0.55 0.699 0.21 0.096 0.454 0.101 5.419 0.101s5.21-0.005 5.419-0.101c0.278-0.136 0.482-0.389 0.549-0.692l0.001-0.007c0.075-0.328 0.075-10.069 0-10.397-0.068-0.31-0.272-0.563-0.544-0.697l-0.006-0.003c-0.21-0.096-0.454-0.101-5.419-0.101s-5.21 0.005-5.419 0.101z"></path>
</symbol>
<symbol id="icon-heart" viewBox="0 0 32 32">
<path d="M7.253 2.699c-1.080 0.128-1.947 0.379-2.853 0.825-0.797 0.392-1.48 0.885-2.068 1.472l0-0c-0.605 0.584-1.109 1.269-1.485 2.028l-0.019 0.043c-0.517 0.981-0.821 2.144-0.821 3.377 0 0.144 0.004 0.287 0.012 0.429l-0.001-0.020c0.085 2.1 0.791 3.785 2.421 5.783 0.599 0.732 2.769 2.904 5.053 5.055 2.899 2.731 5.356 5.265 7.228 7.456 0.713 0.835 0.815 0.907 1.279 0.907 0.461 0 0.564-0.072 1.255-0.88 1.904-2.228 4.251-4.649 7.252-7.483 3.925-3.705 5.103-4.955 6.068-6.44 1.376-2.119 1.777-4.649 1.1-6.943-0.829-2.808-3.244-4.944-6.235-5.512-0.697-0.132-2.087-0.135-2.739-0.005-1.621 0.324-2.967 1.096-4.305 2.471-0.813 0.828-1.513 1.77-2.071 2.801l-0.033 0.066c-0.137 0.252-0.267 0.459-0.289 0.459s-0.12-0.149-0.217-0.333c-0.616-1.144-1.343-2.128-2.188-2.996l0.003 0.003c-1.312-1.353-2.705-2.156-4.273-2.46-0.433-0.084-1.696-0.147-2.073-0.101zM9.403 4.873c0.911 0.273 1.74 0.78 2.537 1.551 1.103 1.065 1.649 1.901 3.001 4.589 0.568 1.128 1.044 2.052 1.059 2.052s0.489-0.92 1.053-2.044c1.361-2.707 1.912-3.547 3.037-4.624 0.804-0.769 1.577-1.24 2.507-1.528 0.44-0.136 0.531-0.145 1.456-0.144 0.895 0.003 1.036 0.015 1.508 0.143 1.092 0.293 2.024 0.851 2.825 1.688 1.072 1.121 1.584 2.409 1.585 3.985 0.003 1.419-0.345 2.516-1.203 3.805-0.755 1.136-1.903 2.355-4.689 4.977-3.097 2.916-5.717 5.561-7.469 7.543-0.317 0.359-0.592 0.653-0.611 0.653s-0.293-0.295-0.611-0.653c-1.731-1.959-4.329-4.583-7.469-7.544-3.423-3.228-4.519-4.464-5.239-5.909-0.769-1.543-0.879-3.437-0.288-4.964 0.508-1.312 1.588-2.492 2.872-3.136 0.927-0.465 1.679-0.624 2.841-0.599 0.707 0.015 0.895 0.039 1.296 0.159z"></path>
</symbol>
<symbol id="icon-hugeicons_gas-stove" viewBox="0 0 32 32">
<path d="M6.347 1.528c-1.245 0.13-1.772 0.259-2.503 0.614-0.473 0.229-0.621 0.334-0.994 0.708-0.374 0.373-0.479 0.521-0.708 0.994-0.287 0.592-0.44 1.113-0.552 1.889-0.102 0.704-0.102 19.83 0 20.534 0.112 0.776 0.265 1.297 0.552 1.889 0.229 0.473 0.334 0.621 0.708 0.994s0.52 0.479 0.994 0.708c0.576 0.279 0.931 0.39 1.703 0.531 0.396 0.072 1.656 0.086 9.973 0.104 6.873 0.016 9.716 0.005 10.226-0.039 1.020-0.089 1.739-0.266 2.408-0.593 0.473-0.231 0.625-0.339 0.996-0.711 0.372-0.372 0.48-0.523 0.712-0.996 0.31-0.635 0.496-1.368 0.588-2.31 0.078-0.805 0.078-18.883 0-19.688-0.092-0.942-0.278-1.675-0.588-2.31-0.232-0.473-0.34-0.624-0.712-0.996-0.373-0.374-0.52-0.479-0.994-0.708-0.576-0.279-0.931-0.39-1.703-0.531-0.398-0.073-1.639-0.084-10.186-0.093-5.354-0.005-9.818 0-9.92 0.010zM25.056 3.894c2.488 0.151 2.899 0.562 3.050 3.050 0.070 1.153 0.070 16.959 0 18.112-0.151 2.488-0.562 2.899-3.050 3.050-1.153 0.070-16.959 0.070-18.112 0-2.488-0.151-2.899-0.562-3.050-3.050-0.070-1.153-0.070-16.959 0-18.112 0.106-1.743 0.367-2.385 1.101-2.71 0.389-0.172 1.021-0.289 1.816-0.337 1.036-0.062 17.226-0.065 18.245-0.003zM15.52 5.578c-0.409 0.178-0.64 0.514-0.689 1.003l-0.031 0.315-0.427 0.117c-2.36 0.648-4.045 2.334-4.693 4.694l-0.117 0.426-0.315 0.031c-0.357 0.036-0.57 0.132-0.779 0.351-0.413 0.436-0.413 1.201 0 1.636 0.209 0.22 0.422 0.316 0.781 0.351l0.316 0.031 0.116 0.427c0.642 2.357 2.334 4.049 4.691 4.691l0.427 0.116 0.031 0.317c0.035 0.358 0.131 0.571 0.351 0.78 0.436 0.414 1.2 0.414 1.636 0 0.219-0.208 0.316-0.422 0.351-0.779l0.031-0.314 0.267-0.074c1.506-0.415 2.554-1.048 3.457-2.086 0.69-0.794 1.11-1.613 1.44-2.811l0.073-0.267 0.315-0.031c0.357-0.035 0.57-0.131 0.779-0.351 0.413-0.435 0.413-1.2 0-1.636-0.209-0.219-0.422-0.315-0.779-0.351l-0.315-0.031-0.073-0.266c-0.384-1.383-0.877-2.268-1.754-3.144-0.835-0.836-1.791-1.383-2.983-1.707l-0.427-0.116-0.031-0.317c-0.049-0.497-0.282-0.832-0.701-1.007-0.249-0.104-0.704-0.103-0.948 0.002zM15.092 9.438c0.031 0.058 0.17 0.172 0.309 0.254 0.208 0.122 0.314 0.148 0.599 0.146 0.388-0.002 0.625-0.1 0.868-0.36l0.149-0.16 0.323 0.097c1.077 0.326 2.252 1.501 2.578 2.578l0.098 0.323-0.16 0.149c-0.234 0.216-0.379 0.524-0.379 0.866 0 0.328 0.134 0.624 0.349 0.838l0.188 0.188-0.097 0.319c-0.325 1.074-1.501 2.25-2.577 2.575l-0.323 0.098-0.149-0.16c-0.244-0.261-0.48-0.359-0.868-0.359s-0.624 0.098-0.868 0.359l-0.149 0.16-0.323-0.098c-1.077-0.326-2.252-1.501-2.578-2.578l-0.098-0.322 0.16-0.15c0.262-0.244 0.359-0.48 0.359-0.868s-0.097-0.624-0.359-0.868l-0.16-0.149 0.098-0.323c0.313-1.032 1.38-2.137 2.45-2.534 0.401-0.15 0.49-0.153 0.56-0.021zM7.493 24.261c-0.909 0.421-0.885 1.777 0.039 2.163 0.171 0.071 0.6 0.083 3.146 0.081 2.756-0.001 2.963-0.007 3.162-0.099 0.894-0.414 0.894-1.731 0-2.145-0.2-0.092-0.405-0.099-3.173-0.099s-2.974 0.007-3.174 0.099zM23.493 24.261c-0.428 0.199-0.666 0.591-0.666 1.099 0 0.358 0.126 0.633 0.402 0.875 0.254 0.223 0.413 0.281 0.771 0.281s0.517-0.058 0.771-0.281c0.28-0.246 0.403-0.517 0.401-0.886-0.003-0.705-0.486-1.191-1.184-1.188-0.179 0.003-0.349 0.040-0.504 0.103l0.009-0.003z"></path>
</symbol>
<symbol id="icon-ion_water-outline" viewBox="0 0 32 32">
<path d="M15.431 2.602c-0.409 0.146-0.598 0.316-1.311 1.173-2.792 3.362-5.191 7.046-6.536 10.038-1.102 2.452-1.557 4.292-1.557 6.293 0 2.962 0.902 5.337 2.716 7.151 1.411 1.411 3.002 2.195 5.259 2.593 0.763 0.134 3.233 0.134 3.996 0 2.257-0.398 3.848-1.182 5.259-2.593 1.406-1.405 2.208-3.030 2.585-5.231 0.118-0.686 0.164-2.506 0.081-3.182-0.389-3.189-2.085-6.882-5.223-11.377-1.073-1.537-3.175-4.212-3.576-4.549-0.447-0.376-1.155-0.508-1.693-0.316zM16.627 5.4c2.19 2.664 4.282 5.803 5.52 8.28 0.978 1.957 1.61 3.843 1.797 5.359 0.109 0.879 0.058 1.997-0.137 3.014-0.289 1.502-0.981 2.84-1.979 3.822-1.427 1.406-3.399 2.125-5.828 2.125-1.505 0-2.811-0.271-3.973-0.825-2.655-1.264-4.14-4.008-4.011-7.408 0.044-1.159 0.223-2.037 0.697-3.421 0.899-2.623 2.885-6.051 5.469-9.439 0.781-1.024 1.758-2.214 1.818-2.214 0.026 0 0.308 0.318 0.627 0.707zM21.12 19.58c-0.169 0.067-0.415 0.299-0.51 0.481-0.041 0.078-0.097 0.378-0.125 0.667-0.091 0.944-0.339 1.509-0.944 2.15-0.657 0.696-1.342 1.021-2.358 1.116-0.595 0.056-0.779 0.143-1.022 0.484-0.274 0.385-0.159 1.009 0.242 1.314 0.201 0.153 0.209 0.155 0.9 0.148 0.587-0.005 0.771-0.028 1.165-0.147 1.001-0.3 1.79-0.774 2.468-1.482 0.9-0.942 1.376-1.962 1.519-3.26 0.066-0.599 0.041-0.834-0.117-1.091-0.223-0.363-0.805-0.545-1.218-0.38z"></path>
</symbol>
<symbol id="icon-logo" viewBox="0 0 272 32">
<path d="M0 3.174v3.172h8.614v22.668h7.706v-22.668h9.066v-6.346h-25.386v3.174zM117.414 14.506v14.508h7.706v-29.014h-7.706v14.506zM128.746 3.174v3.172h9.068v22.668h7.706v-22.668h8.614v-6.346h-25.388v3.174zM225.76 14.506v14.508h7.706v-3.118c0-2.286 0.192-3.276 0.716-3.712 0.818-0.678 0.564-0.972 3.19 3.696l1.762 3.132 8.846 0.002-3.024-4.874c-0.141-0.1-1.371-2.079-2.586-4.069l-1.134-1.997c-0.684-1.17-0.63-1.278 2.794-5.746 1.92-2.504 3.49-4.678 3.49-4.83 0-0.154-1.878-0.22-4.172-0.148l-4.17 0.13-5.484 7.678-0.124-7.58-0.126-7.578h-7.684v14.506zM26.746 18.134v10.88h8.16v-6.488c0-5.892 0.086-6.58 0.92-7.476 1.11-1.19 2.728-1.65 4.538-1.288l1.342 0.268v-6.776h-1.842c-2.418 0-3.4 0.574-4.48 2.62l-0.89 1.686-0.020-2.154-0.020-2.152h-7.708v10.88zM48.226 8.386c-1.562 0.778-2.58 1.682-3.262 2.894-1.672 2.976-1.482 3.226 2.45 3.226 2.962 0 3.55-0.134 4.22-0.962 1.404-1.734 5.058-0.812 4.328 1.092-0.35 0.908-0.884 1.084-5.15 1.682-5.44 0.766-7.748 2.818-7.744 6.892 0.004 3.854 2.686 6.256 6.982 6.256 2.568 0 4.092-0.582 5.5-2.1l1.116-1.206v2.854h7.254v-8.054c0-6.904-0.118-8.28-0.824-9.634-2.016-3.866-9.888-5.422-14.87-2.94zM66.186 7.582c0 0.182 1.578 5.078 3.506 10.88l3.506 10.552h9.234l3.436-10.314c1.892-5.672 3.438-10.576 3.438-10.898 0-0.442-0.962-0.552-3.956-0.452l-3.958 0.13-1.676 6.956c-0.922 3.826-1.772 7.052-1.89 7.17-0.118 0.116-0.984-3.064-1.928-7.070l-1.714-7.282h-3.998c-2.2 0-4 0.148-4 0.328zM97.694 7.882c-4.116 1.798-6.272 5.408-6.26 10.478 0.014 5.042 1.95 8.462 5.806 10.248 2.102 0.972 7.362 1.156 9.792 0.342 3.046-1.020 5.848-3.91 5.848-6.034 0-1.15-6.068-0.986-7.582 0.204-2.292 1.802-5.634 0.774-6.274-1.926l-0.296-1.248h14.67l-0.314-2.606c-0.574-4.778-2.378-7.61-5.87-9.228-2.164-1.002-7.46-1.13-9.52-0.23zM155.946 18.134v10.88h7.708v-6.1c0-3.566 0.212-6.564 0.512-7.222 0.642-1.408 2.608-2.25 4.69-2.008l1.598 0.188v-6.618h-1.848c-1.868 0-3.396 1.086-4.812 3.416-0.468 0.772-0.544 0.604-0.568-1.264l-0.026-2.152h-7.254v10.88zM174.080 15.318c0 7.468 0.076 8.21 1.020 10.060 1.37 2.682 2.948 3.746 5.874 3.962s5.096-0.774 6.584-3l1.028-1.54v4.214h7.254v-21.76h-7.706v7.026c0 6.422-0.078 7.104-0.908 7.934-1.166 1.166-3.366 1.166-4.532 0-0.83-0.83-0.908-1.512-0.908-7.934v-7.026h-7.706v8.064zM206.748 7.822c-2.536 0.844-5.266 3.82-6.102 6.654-0.4 1.354-0.726 3.102-0.726 3.884 0 2.918 1.374 6.27 3.35 8.172 2.194 2.114 4.514 2.936 8.262 2.93 4.77-0.008 8.268-2.296 9.626-6.296 1.050-3.098 0.934-3.22-3.104-3.22-3.174 0-3.628 0.102-3.628 0.806 0 2.77-3.646 3.866-5.406 1.626-1.146-1.456-1.3-5.86-0.276-7.84 1.268-2.452 4.824-2.028 5.498 0.654 0.272 1.084 0.424 1.128 3.91 1.128h3.628l-0.298-1.7c-0.416-2.364-2.41-5.070-4.562-6.19-2.124-1.106-7.684-1.438-10.172-0.608zM255.070 7.894c-2.394 0.882-3.842 2.364-4.424 4.526-0.646 2.394 0.068 4.816 1.866 6.328 1.236 1.040 2.228 1.338 9.42 2.824 1.408 0.292 1.816 1.522 0.762 2.294-1.28 0.936-2.852 0.736-4.108-0.52-1.030-1.030-1.482-1.132-4.966-1.132-2.108 0-3.834 0.108-3.834 0.24 0 0.134 0.284 0.92 0.63 1.75 1.478 3.534 4.912 5.298 10.334 5.31 3.184 0.008 4.074-0.174 6.236-1.268 4.424-2.242 5.73-6.742 2.838-9.79-1.202-1.266-3.892-2.244-7.798-2.838-2.636-0.4-3.626-0.942-3.626-1.986 0-1.712 2.73-1.876 4.348-0.258 1.006 1.006 1.512 1.132 4.512 1.132 3.246 0 3.38-0.042 3.38-1.066 0-1.594-1.806-3.946-3.854-5.014-2.31-1.206-9.058-1.512-11.716-0.532zM105.14 13.888c0.518 0.656 0.94 1.37 0.94 1.586 0 0.548-6.684 0.494-7.024-0.056-0.154-0.248 0.234-0.962 0.858-1.588 1.586-1.584 3.956-1.558 5.226 0.058zM56.214 21.018c0 0.59-0.424 1.61-0.94 2.268-1.522 1.936-4.954 1.482-4.954-0.654 0-1.002 1.024-1.814 2.836-2.244 2.604-0.618 3.058-0.524 3.058 0.63z"></path>
</symbol>
<symbol id="icon-lucide_microwave" viewBox="0 0 32 32">
<path d="M4.822 4.377c-0.779 0.093-1.464 0.438-2.069 1.043-0.643 0.643-0.952 1.29-1.050 2.198-0.036 0.338-0.049 3.115-0.038 8.089 0.016 7.013 0.024 7.597 0.11 7.893 0.298 1.024 1.018 1.899 1.932 2.348 0.611 0.301 0.891 0.351 2.141 0.384l1.129 0.029 0.019 0.966c0.020 1.003 0.038 1.094 0.277 1.358 0.181 0.2 0.411 0.292 0.727 0.292s0.546-0.092 0.727-0.292c0.239-0.264 0.257-0.355 0.277-1.365l0.020-0.973h13.952l0.020 0.973c0.020 1.010 0.038 1.101 0.277 1.365 0.181 0.2 0.411 0.292 0.727 0.292s0.546-0.092 0.727-0.292c0.239-0.264 0.257-0.355 0.277-1.358l0.019-0.966 1.129-0.029c1.25-0.033 1.53-0.083 2.141-0.384 0.927-0.455 1.656-1.35 1.933-2.375 0.088-0.323 0.094-0.872 0.094-8.24s-0.006-7.916-0.094-8.24c-0.361-1.285-1.346-2.278-2.599-2.645l-0.027-0.007c-0.3-0.087-1.006-0.094-11.36-0.101-6.072-0.004-11.21 0.013-11.418 0.037zM27.272 6.455c0.387 0.145 0.795 0.553 0.94 0.94 0.107 0.285 0.108 0.383 0.108 7.938 0 7.556-0.001 7.653-0.108 7.939-0.145 0.387-0.553 0.795-0.94 0.94-0.287 0.107-0.367 0.108-11.272 0.108s-10.985-0.001-11.272-0.108c-0.387-0.145-0.795-0.553-0.94-0.94-0.107-0.286-0.108-0.383-0.108-7.939 0-7.555 0.001-7.653 0.108-7.938 0.141-0.377 0.553-0.795 0.925-0.937 0.269-0.104 0.453-0.106 11.272-0.109 10.924-0.002 11-0.002 11.287 0.106zM8.935 9.713c-0.444 0.064-0.853 0.284-1.229 0.66-0.388 0.388-0.593 0.782-0.664 1.28-0.071 0.495-0.071 6.866 0 7.36 0.071 0.498 0.276 0.893 0.664 1.281s0.783 0.593 1.281 0.664c0.498 0.071 8.195 0.071 8.693 0s0.892-0.276 1.281-0.664c0.388-0.388 0.592-0.783 0.664-1.281 0.070-0.494 0.070-6.865 0-7.36-0.072-0.498-0.276-0.892-0.664-1.28s-0.783-0.593-1.281-0.664c-0.461-0.066-8.29-0.063-8.745 0.004zM23.74 9.706l-0.008 0.001c0.080-0.016 0.162-0.024 0.246-0.024 0.184 0 0.359 0.040 0.509 0.108 0.18 0.092 0.408 0.364 0.46 0.546 0.052 0.187 0.052 9.806 0 9.992-0.054 0.192-0.282 0.455-0.487 0.562-0.201 0.104-0.701 0.114-0.887 0.018-0.191-0.099-0.37-0.272-0.471-0.456-0.080-0.145-0.090-0.607-0.105-4.88-0.009-2.596-0.001-4.844 0.017-4.997 0.052-0.433 0.338-0.776 0.726-0.87zM17.556 11.768c0.092 0.084 0.097 0.265 0.097 3.556 0 3.152-0.008 3.476-0.088 3.565-0.084 0.093-0.285 0.098-4.222 0.098-3.772 0-4.143-0.008-4.232-0.089-0.093-0.083-0.098-0.264-0.098-3.555 0-3.152 0.008-3.477 0.089-3.565 0.084-0.093 0.285-0.098 4.222-0.098 3.772 0 4.143 0.008 4.232 0.088z"></path>
</symbol>
<symbol id="icon-ph_shower" viewBox="0 0 32 32">
<path d="M26.613 4.084c-0.116 0.050-0.928 0.821-2.142 2.033l-1.955 1.954-8.030 1.373c-6.521 1.115-8.084 1.398-8.32 1.506-0.41 0.188-0.748 0.52-0.953 0.936-0.159 0.322-0.173 0.394-0.173 0.861 0 0.928-0.547 0.312 6.731 7.578 7.223 7.212 6.571 6.633 7.483 6.634 0.467 0.001 0.537-0.013 0.864-0.174 0.396-0.195 0.762-0.56 0.939-0.937 0.14-0.297 0.094-0.044 1.606-8.909l1.273-7.461 3.45-3.451h1.771c1.082 0 1.877-0.023 2.043-0.059 0.723-0.155 1.043-1.041 0.57-1.579-0.341-0.388-0.333-0.387-2.783-0.386-1.823 0.001-2.218 0.014-2.374 0.081zM21.76 10.271c0 0.043-2.446 14.36-2.486 14.55-0.031 0.147-0.303-0.117-6.131-5.945-3.354-3.354-6.090-6.107-6.079-6.117 0.021-0.021 14.451-2.505 14.603-2.514 0.051-0.003 0.093 0.009 0.093 0.026zM6.087 20.058c-0.622 0.193-1.066 0.764-1.066 1.438 0 0.045 0.002 0.089 0.006 0.133l-0-0.006c0.031 0.383 0.137 0.617 0.407 0.902 0.324 0.341 0.552 0.434 1.074 0.434 0.399 0.001 0.483-0.017 0.702-0.145 1.052-0.619 1.047-2.047-0.009-2.622-0.311-0.17-0.803-0.229-1.113-0.134zM2.087 24.058c-0.622 0.193-1.066 0.764-1.066 1.438 0 0.045 0.002 0.089 0.006 0.133l-0-0.006c0.031 0.383 0.137 0.617 0.407 0.902 0.324 0.341 0.552 0.434 1.074 0.434 0.399 0.001 0.483-0.017 0.702-0.145 1.052-0.619 1.047-2.047-0.009-2.622-0.311-0.17-0.803-0.229-1.113-0.134zM10.087 24.058c-0.622 0.193-1.066 0.764-1.066 1.438 0 0.045 0.002 0.089 0.006 0.133l-0-0.006c0.031 0.383 0.137 0.617 0.407 0.902 0.324 0.341 0.552 0.434 1.074 0.434 0.399 0.001 0.483-0.017 0.702-0.145 1.052-0.619 1.047-2.047-0.009-2.622-0.311-0.17-0.803-0.229-1.113-0.134zM6.087 28.058c-0.622 0.193-1.066 0.764-1.066 1.438 0 0.045 0.002 0.089 0.006 0.133l-0-0.006c0.031 0.383 0.137 0.617 0.407 0.902 0.324 0.341 0.552 0.434 1.074 0.434 0.399 0.001 0.483-0.017 0.702-0.145 1.052-0.619 1.047-2.047-0.009-2.622-0.311-0.17-0.803-0.229-1.113-0.134z"></path>
</symbol>
<symbol id="icon-solar_fridge-outline" viewBox="0 0 32 32">
<path d="M12.453 1.711c-2.482 0.075-3.816 0.312-4.94 0.875-1.488 0.747-2.412 2.025-2.818 3.9-0.289 1.333-0.371 3.298-0.371 8.847 0 7.348 0.138 8.91 0.929 10.487 0.368 0.735 1 1.469 1.634 1.902 0.286 0.194 0.925 0.522 1.21 0.621l0.196 0.067 0.032 0.619c0.027 0.548 0.047 0.643 0.169 0.829 0.076 0.115 0.23 0.266 0.342 0.335 0.195 0.121 0.246 0.127 1.164 0.127s0.969-0.006 1.164-0.127c0.303-0.188 0.459-0.46 0.497-0.864l0.032-0.342h8.614l0.032 0.342c0.038 0.404 0.194 0.676 0.497 0.864 0.195 0.121 0.246 0.127 1.164 0.127s0.969-0.006 1.164-0.127c0.112-0.069 0.266-0.22 0.342-0.335 0.122-0.186 0.142-0.281 0.169-0.829l0.032-0.619 0.196-0.067c0.107-0.038 0.368-0.155 0.579-0.26 0.989-0.495 1.773-1.279 2.253-2.241l0.013-0.029c0.788-1.573 0.929-3.16 0.929-10.48 0-3.982-0.062-6.58-0.182-7.636-0.229-2.012-0.75-3.259-1.769-4.234-0.987-0.943-2.164-1.408-4.116-1.626-1.435-0.161-5.964-0.223-9.157-0.126zM20.454 3.736c2.193 0.144 3.146 0.44 3.925 1.218 1.035 1.036 1.274 2.364 1.274 7.085v2.308h-19.306v-2.308c0-4.721 0.239-6.049 1.274-7.085 0.759-0.758 1.756-1.077 3.792-1.214 0.99-0.066 8.045-0.069 9.041-0.004zM22.414 8.371c-0.228 0.055-0.525 0.286-0.641 0.498-0.081 0.149-0.095 0.364-0.109 1.674-0.011 0.963 0.004 1.58 0.041 1.718 0.117 0.426 0.501 0.734 0.956 0.734 0.276 0 0.525-0.113 0.705-0.295l0-0c0.301-0.301 0.322-0.454 0.304-2.157-0.016-1.402-0.024-1.515-0.126-1.689-0.219-0.373-0.714-0.585-1.13-0.483zM25.653 18.628c0 4.72-0.239 6.049-1.274 7.084-0.779 0.779-1.732 1.075-3.925 1.219-0.469 0.030-2.473 0.056-4.454 0.056s-3.985-0.026-4.454-0.056c-2.193-0.144-3.146-0.44-3.925-1.219-1.035-1.035-1.274-2.364-1.274-7.084v-2.308h19.306v2.308zM22.414 17.704c-0.228 0.056-0.525 0.287-0.641 0.499-0.081 0.148-0.095 0.363-0.109 1.673-0.011 0.964 0.004 1.58 0.041 1.718 0.117 0.426 0.501 0.734 0.956 0.734 0.276 0 0.525-0.113 0.705-0.295l0-0c0.301-0.3 0.322-0.454 0.304-2.157-0.016-1.402-0.024-1.515-0.126-1.689-0.219-0.372-0.714-0.584-1.13-0.483z"></path>
</symbol>
<symbol id="icon-star" viewBox="0 0 32 32">
<path d="M15.51 1.282c-0.117 0.065-0.216 0.149-0.297 0.248l-0.001 0.002c-0.058 0.082-0.95 1.756-1.986 3.722-1.047 2.061-1.714 3.284-2.397 4.498l0.393-0.759c-0.085 0.106-0.19 0.193-0.309 0.255l-0.005 0.003c-0.108 0.050-1.916 0.388-4.176 0.778-2.192 0.378-4.074 0.714-4.182 0.744-0.415 0.14-0.713 0.515-0.736 0.963l-0 0.003c0 0.106 0.054 0.29 0.12 0.41s1.416 1.552 3 3.182c1.584 1.628 2.922 3.040 2.972 3.136 0.058 0.123 0.092 0.267 0.094 0.419v0.001c0 0.136-0.262 2.074-0.582 4.31-0.478 3.34-0.572 4.096-0.528 4.26 0.115 0.431 0.502 0.744 0.962 0.744 0.032 0 0.063-0.001 0.094-0.004l-0.004 0c0.176-0.022 1.296-0.548 4.004-1.882 3.562-1.754 3.776-1.852 4.054-1.852s0.492 0.098 4.054 1.852c2.708 1.334 3.828 1.86 4.004 1.882 0.027 0.003 0.059 0.004 0.091 0.004 0.461 0 0.848-0.314 0.96-0.739l0.002-0.007c0.044-0.162-0.048-0.908-0.526-4.24-0.32-2.222-0.582-4.162-0.582-4.308-0-0.005-0-0.010-0-0.016 0-0.154 0.034-0.3 0.095-0.431l-0.003 0.006c0.050-0.096 1.388-1.508 2.972-3.136 1.584-1.63 2.934-3.062 3-3.182 0.065-0.119 0.108-0.258 0.12-0.406l0-0.004c-0.023-0.451-0.321-0.826-0.728-0.964l-0.008-0.002c-0.108-0.030-1.99-0.366-4.182-0.744-2.26-0.39-4.068-0.728-4.176-0.778-0.124-0.066-0.229-0.152-0.313-0.256l-0.001-0.002c-0.29-0.454-0.956-1.677-1.607-2.911l-0.397-0.827c-1.036-1.966-1.93-3.64-1.986-3.722-0.24-0.342-0.87-0.466-1.278-0.25z"></path>
</symbol>
<symbol id="icon-tv" viewBox="0 0 32 32">
<path d="M3.2 4.063c-0.798 0.109-1.496 0.473-2.024 1.006l-0 0c-0.41 0.41-0.658 0.808-0.862 1.383-0.326 0.923-0.314 0.622-0.313 7.639 0 6.062 0.006 6.442 0.1 6.896 0.302 1.45 1.179 2.354 2.752 2.838l0.48 0.148 8.667 0.031v0.251c0 0.768-0.173 1.889-0.373 2.424l-0.111 0.297-0.891 0.020c-0.695 0.016-0.927 0.040-1.052 0.107-0.775 0.422-0.745 1.439 0.054 1.809 0.203 0.095 0.49 0.099 6.373 0.099s6.17-0.004 6.373-0.099c0.394-0.182 0.614-0.509 0.614-0.912 0-0.009 0.001-0.021 0.001-0.032 0-0.244-0.098-0.465-0.258-0.626l0 0c-0.28-0.296-0.39-0.324-1.355-0.346l-0.891-0.020-0.111-0.297c-0.201-0.535-0.373-1.656-0.373-2.426v-0.253l4.253-0.001c3.949 0 4.288-0.008 4.734-0.1 1.45-0.302 2.353-1.178 2.838-2.752l0.148-0.48 0.015-6.558c0.013-5.819 0.005-6.608-0.071-7.013-0.253-1.356-1.058-2.3-2.368-2.778-0.92-0.336-0.148-0.319-13.676-0.311-7.242 0.003-12.469 0.027-12.673 0.056zM28.919 6.205c0.421 0.178 0.752 0.478 0.913 0.827l0.115 0.248v13.28l-0.144 0.335c-0.286 0.666-0.666 0.964-1.376 1.076-0.478 0.076-24.217 0.076-24.682 0-0.778-0.126-1.294-0.442-1.541-0.943l-0.151-0.308v-13.28l0.142-0.33c0.249-0.58 0.523-0.85 1.022-1.007 0.182-0.057 2.55-0.068 12.783-0.060l12.56 0.010 0.359 0.152z"></path>
</symbol>
<symbol id="icon-ui-radios" viewBox="0 0 32 32">
<path d="M4.749 2.141c-1.918 0.402-3.614 1.835-4.318 3.646-0.323 0.832-0.402 1.262-0.403 2.186 0 0.941 0.088 1.437 0.402 2.24 0.904 2.235 3.057 3.783 5.571 3.783 2.653 0 4.903-1.723 5.692-4.112l0.012-0.042c0.187-0.551 0.295-1.186 0.295-1.846 0-1.673-0.693-3.184-1.807-4.262l-0.002-0.002c-0.79-0.786-1.802-1.35-2.934-1.588l-0.038-0.007c-0.369-0.070-0.792-0.11-1.226-0.11-0.439 0-0.869 0.041-1.286 0.12l0.043-0.007zM14.581 4.102c-0.278 0.136-0.482 0.389-0.549 0.692l-0.001 0.007c-0.070 0.309-0.070 2.088 0 2.397 0.074 0.315 0.278 0.576 0.55 0.699 0.211 0.096 0.501 0.101 7.419 0.101s7.208-0.005 7.419-0.101c0.278-0.136 0.482-0.389 0.549-0.692l0.001-0.007c0.030-0.131 0.054-0.67 0.054-1.198s-0.024-1.067-0.054-1.198c-0.068-0.31-0.272-0.563-0.544-0.697l-0.006-0.003c-0.211-0.096-0.501-0.101-7.419-0.101s-7.208 0.005-7.419 0.101zM6.907 5.139c1.054 0.331 1.914 1.357 2.053 2.456 0.018 0.124 0.028 0.266 0.028 0.411 0 1.646-1.335 2.981-2.981 2.981-0.003 0-0.005 0-0.008 0h0c-0.001 0-0.002 0-0.003 0-1.648 0-2.984-1.336-2.984-2.984 0-0.142 0.010-0.282 0.029-0.419l-0.002 0.016c0.176-1.218 1.055-2.191 2.206-2.502l0.021-0.005c0.382-0.096 1.262-0.072 1.64 0.046zM14.587 10.088c-0.186 0.117-0.342 0.266-0.464 0.44l-0.003 0.005c-0.068 0.132-0.108 0.289-0.108 0.455 0 0.398 0.229 0.742 0.563 0.908l0.006 0.003c0.21 0.096 0.454 0.101 5.419 0.101s5.21-0.005 5.419-0.101c0.339-0.168 0.569-0.512 0.569-0.91 0-0.166-0.040-0.322-0.11-0.46l0.003 0.006c-0.126-0.194-0.299-0.347-0.503-0.446l-0.007-0.003c-0.214-0.082-10.635-0.075-10.782 0.005zM4.749 18.141c-1.918 0.402-3.614 1.835-4.318 3.646-0.326 0.843-0.403 1.261-0.403 2.213s0.077 1.37 0.403 2.213c0.905 2.234 3.057 3.78 5.57 3.78 2.652 0 4.902-1.722 5.691-4.109l0.012-0.042c0.187-0.551 0.295-1.186 0.295-1.846 0-1.673-0.693-3.184-1.807-4.262l-0.002-0.002c-0.79-0.786-1.802-1.35-2.934-1.588l-0.038-0.007c-0.369-0.070-0.792-0.11-1.226-0.11-0.439 0-0.869 0.041-1.286 0.12l0.043-0.007zM14.581 20.102c-0.278 0.136-0.482 0.389-0.549 0.692l-0.001 0.007c-0.070 0.309-0.070 2.088 0 2.397 0.074 0.315 0.278 0.576 0.55 0.699 0.211 0.096 0.501 0.101 7.419 0.101s7.208-0.005 7.419-0.101c0.278-0.136 0.482-0.389 0.549-0.692l0.001-0.007c0.030-0.131 0.054-0.67 0.054-1.198s-0.024-1.067-0.054-1.198c-0.068-0.31-0.272-0.563-0.544-0.697l-0.006-0.003c-0.211-0.096-0.501-0.101-7.419-0.101s-7.208 0.005-7.419 0.101zM14.587 26.088c-0.186 0.117-0.342 0.266-0.464 0.44l-0.003 0.005c-0.068 0.132-0.108 0.289-0.108 0.455 0 0.398 0.229 0.742 0.563 0.908l0.006 0.003c0.21 0.096 0.454 0.101 5.419 0.101s5.21-0.005 5.419-0.101c0.339-0.168 0.569-0.512 0.569-0.91 0-0.166-0.040-0.322-0.11-0.46l0.003 0.006c-0.126-0.194-0.299-0.347-0.503-0.446l-0.007-0.003c-0.214-0.082-10.635-0.075-10.782 0.005z"></path>
</symbol>
<symbol id="icon-wind" viewBox="0 0 32 32">
<path d="M23.92 2.083c-0.176 0.027-0.536 0.11-0.8 0.186-2.571 0.732-4.448 2.767-4.986 5.406-0.14 0.687-0.159 1.518-0.040 1.744 0.115 0.218 0.431 0.491 0.614 0.531 0.080 0.018 0.172 0.040 0.205 0.050 0.126 0.038 0.532-0.091 0.706-0.224 0.249-0.19 0.362-0.489 0.401-1.056 0.227-3.336 3.457-5.502 6.607-4.431 1.674 0.583 2.921 1.991 3.265 3.724l0.005 0.032c0.101 0.515 0.097 1.457-0.007 1.971-0.184 0.9-0.709 1.862-1.383 2.532-0.643 0.639-1.365 1.047-2.32 1.312l-0.507 0.14-12.507 0.027c-11.726 0.025-12.517 0.032-12.675 0.119-0.353 0.193-0.539 0.596-0.474 1.028 0.048 0.32 0.372 0.693 0.672 0.773 0.136 0.037 4.306 0.049 12.753 0.038 13.847-0.018 12.649 0.011 13.724-0.34 1.771-0.577 3.297-1.901 4.095-3.549 0.468-0.968 0.668-1.757 0.712-2.816 0.142-3.363-2.131-6.333-5.435-7.102-0.555-0.129-2.051-0.183-2.625-0.095zM10.24 4.077c-0.454 0.098-0.723 0.197-1.19 0.44-0.546 0.284-1.266 1.015-1.566 1.59-0.377 0.72-0.575 1.671-0.448 2.144 0.19 0.707 1.048 0.982 1.603 0.515 0.237-0.199 0.32-0.394 0.375-0.88 0.088-0.766 0.44-1.305 1.079-1.652 0.319-0.173 0.358-0.181 0.894-0.181 0.51 0 0.588 0.014 0.877 0.156 1.764 0.866 1.357 3.447-0.594 3.766-0.181 0.030-2.434 0.051-5.419 0.051-4.979 0.001-5.114 0.003-5.315 0.106-0.387 0.197-0.58 0.59-0.512 1.042 0.048 0.321 0.372 0.692 0.674 0.774 0.136 0.037 2.005 0.049 5.606 0.038 6.046-0.018 5.593 0.011 6.469-0.412 2.284-1.102 2.93-4.129 1.307-6.121-0.483-0.593-1.298-1.115-2.053-1.317-0.453-0.121-1.359-0.151-1.787-0.059zM0.525 18.134c-0.31 0.165-0.517 0.486-0.517 0.856 0 0.248 0.093 0.474 0.246 0.645l-0.001-0.001c0.105 0.116 0.241 0.24 0.302 0.275 0.085 0.049 2.612 0.071 10.672 0.093 11.847 0.031 10.735-0.010 11.631 0.429 2.301 1.128 2.928 4.14 1.279 6.14-0.501 0.607-1.26 1.087-2.068 1.309-0.524 0.143-1.553 0.127-2.069-0.033-0.893-0.276-1.653-0.813-2.163-1.528-0.446-0.626-0.652-1.228-0.758-2.224-0.058-0.538-0.181-0.767-0.512-0.953-0.25-0.141-0.68-0.157-0.915-0.034-0.207 0.107-0.431 0.347-0.502 0.535-0.14 0.371-0.019 1.443 0.256 2.264 0.288 0.86 0.674 1.504 1.305 2.182 1.093 1.174 2.647 1.905 4.372 1.905 1.663 0 3.167-0.68 4.25-1.778l0.001-0.001c1.534-1.55 2.114-3.787 1.517-5.848-0.604-2.085-2.139-3.572-4.333-4.198l-0.41-0.117-10.694-0.011c-10.497-0.011-10.697-0.010-10.888 0.092z"></path>
</symbol>
<symbol id="icon-bi_check2-circle" viewBox="0 0 32 32">
<path d="M5 16c-0-1.931 0.508-3.828 1.473-5.501s2.354-3.061 4.026-4.027c1.672-0.966 3.569-1.474 5.5-1.474s3.828 0.508 5.5 1.474c0.23 0.13 0.501 0.165 0.756 0.096s0.472-0.236 0.604-0.465c0.132-0.229 0.168-0.5 0.101-0.756s-0.233-0.474-0.461-0.607c-2.478-1.431-5.359-2.004-8.197-1.63s-5.472 1.673-7.495 3.696-3.323 4.658-3.697 7.495c-0.374 2.837 0.199 5.718 1.63 8.197s3.639 4.415 6.283 5.511c2.644 1.095 5.575 1.288 8.339 0.547s5.207-2.372 6.949-4.642c1.742-2.27 2.687-5.052 2.687-7.913 0-0.265-0.105-0.519-0.293-0.707s-0.442-0.293-0.707-0.293-0.52 0.105-0.707 0.293c-0.188 0.188-0.293 0.442-0.293 0.707 0 2.917-1.159 5.715-3.222 7.778s-4.861 3.222-7.778 3.222-5.715-1.159-7.778-3.222c-2.063-2.063-3.222-4.861-3.222-7.778z"></path>
<path d="M30.708 6.708c0.093-0.093 0.167-0.203 0.217-0.325s0.076-0.252 0.076-0.383-0.026-0.262-0.076-0.383c-0.050-0.121-0.124-0.232-0.217-0.325s-0.203-0.167-0.325-0.217-0.252-0.076-0.383-0.076c-0.131 0-0.262 0.026-0.383 0.076s-0.232 0.124-0.325 0.217l-13.292 13.294-5.292-5.294c-0.093-0.093-0.203-0.167-0.325-0.217s-0.252-0.076-0.383-0.076c-0.131 0-0.262 0.026-0.383 0.076s-0.232 0.124-0.325 0.217c-0.093 0.093-0.167 0.203-0.217 0.325s-0.076 0.252-0.076 0.383c0 0.131 0.026 0.262 0.076 0.383s0.124 0.232 0.217 0.325l6 6c0.093 0.093 0.203 0.167 0.325 0.217s0.252 0.076 0.383 0.076c0.132 0 0.262-0.026 0.383-0.076s0.232-0.124 0.325-0.217l14-14z"></path>
</symbol>
</defs>
</svg>
